<?xml version="1.0" encoding="utf-8"?>
<!-- Generator: Adobe Illustrator 19.0.0, SVG Export Plug-In . SVG Version: 6.00 Build 0)  -->
<svg version="1.1" id="Layer_1" xmlns="http://www.w3.org/2000/svg" xmlns:xlink="http://www.w3.org/1999/xlink" x="0px" y="0px"
	 viewBox="-276.7 950.1 137.7 149.3" style="enable-background:new -276.7 950.1 137.7 149.3;" xml:space="preserve">
<style type="text/css">
	.st0{fill:#47848F;}
</style>
<g transform="translate(0.699997, 0.400002)">
	<path class="st0" d="M-228.9,981.8c-19.5-3.6-34.9,0.2-41.1,10.8c-4.6,7.9-3.3,18.5,3.2,29.7c0.5,1,1.8,1.3,2.7,0.7
		c1-0.5,1.3-1.8,0.7-2.7c-5.8-10.1-6.9-19.2-3.2-25.7c5.1-8.8,18.9-12.2,36.9-8.9c1.1,0.2,2.1-0.5,2.3-1.6S-227.8,982-228.9,981.8
		L-228.9,981.8z M-256.6,1036c7.9,8.7,18.1,16.8,29.8,23.5c28.3,16.3,58.4,20.7,73.3,10.6c0.9-0.6,1.1-1.9,0.5-2.8s-1.9-1.1-2.8-0.5
		c-13.3,9.1-41.9,4.9-69-10.7c-11.3-6.5-21.3-14.4-28.9-22.8c-0.7-0.8-2-0.9-2.8-0.1S-257.4,1035.2-256.6,1036L-256.6,1036z"/>
	<path class="st0" d="M-158.3,1033.6c12.8-15.1,17.2-30.3,11.1-40.9c-4.5-7.8-14.1-11.9-26.7-12.1c-1.1,0-2,0.9-2,2c0,1.1,0.9,2,2,2
		c11.4,0.1,19.6,3.7,23.3,10.1c5.1,8.8,1.1,22.4-10.7,36.3c-0.7,0.8-0.6,2.1,0.2,2.8C-160.3,1034.5-159,1034.4-158.3,1033.6
		L-158.3,1033.6z M-191.1,982.4c-11.5,2.5-23.8,7.3-35.6,14.1c-29.2,16.9-48.3,41.7-45.6,59.8c0.2,1.1,1.2,1.8,2.3,1.7
		s1.8-1.2,1.7-2.3c-2.3-16,15.7-39.6,43.7-55.7c11.5-6.6,23.4-11.3,34.5-13.7c1.1-0.2,1.8-1.3,1.5-2.4
		C-189,982.9-190,982.2-191.1,982.4L-191.1,982.4z"/>
	<path class="st0" d="M-238.4,1068.8c6.7,18.6,17.6,30.1,29.9,30.1c9,0,17.2-6.1,23.7-16.9c0.6-0.9,0.3-2.2-0.7-2.7
		c-0.9-0.6-2.2-0.3-2.7,0.7c-5.8,9.7-12.9,14.9-20.3,14.9c-10.2,0-19.9-10.2-26.1-27.5c-0.4-1-1.5-1.6-2.6-1.2
		C-238.3,1066.6-238.8,1067.8-238.4,1068.8L-238.4,1068.8z M-177.4,1065.2c3.5-11,5.3-23.8,5.3-37.1c0-33.1-11.6-61.7-28.1-69
		c-1-0.4-2.2,0-2.6,1c-0.4,1,0,2.2,1,2.6c14.7,6.5,25.7,33.6,25.7,65.4c0,12.9-1.8,25.2-5.1,35.9c-0.3,1.1,0.3,2.2,1.3,2.5
		C-178.9,1066.8-177.8,1066.2-177.4,1065.2L-177.4,1065.2z"/>
	<path class="st0" d="M-139.8,1063.2c0-5.3-4.3-9.6-9.6-9.6c-5.3,0-9.6,4.3-9.6,9.6s4.3,9.6,9.6,9.6
		C-144,1072.8-139.8,1068.5-139.8,1063.2L-139.8,1063.2z M-143.8,1063.2c0,3.1-2.5,5.6-5.6,5.6c-3.1,0-5.6-2.5-5.6-5.6
		s2.5-5.6,5.6-5.6C-146.3,1057.6-143.8,1060.1-143.8,1063.2L-143.8,1063.2z"/>
	<path class="st0" d="M-267.9,1072.8c5.3,0,9.6-4.3,9.6-9.6s-4.3-9.6-9.6-9.6s-9.6,4.3-9.6,9.6S-273.2,1072.8-267.9,1072.8
		L-267.9,1072.8z M-267.9,1068.8c-3.1,0-5.6-2.5-5.6-5.6s2.5-5.6,5.6-5.6s5.6,2.5,5.6,5.6S-264.8,1068.8-267.9,1068.8L-267.9,1068.8
		z"/>
	<path class="st0" d="M-208.5,968.8c5.3,0,9.6-4.3,9.6-9.6c0-5.3-4.3-9.6-9.6-9.6c-5.3,0-9.6,4.3-9.6,9.6
		C-218.1,964.5-213.8,968.8-208.5,968.8L-208.5,968.8z M-208.5,964.8c-3.1,0-5.6-2.5-5.6-5.6s2.5-5.6,5.6-5.6s5.6,2.5,5.6,5.6
		S-205.5,964.8-208.5,964.8L-208.5,964.8z"/>
	<path class="st0" d="M-207.1,1034.9c-3.7,0.8-7.4-1.6-8.2-5.3c-0.8-3.7,1.6-7.4,5.3-8.2c3.7-0.8,7.4,1.6,8.2,5.3
		C-201,1030.4-203.3,1034.1-207.1,1034.9z"/>
</g>
</svg>
